<?xml version="1.0" encoding="UTF-8"?>
<svg xmlns="http://www.w3.org/2000/svg" xmlns:xlink="http://www.w3.org/1999/xlink" width="1024" height="1024" viewBox="0 0 1024 1024" version="1.1">
<g id="surface1">
<path style=" stroke:none;fill-rule:evenodd;fill:rgb(48.235294%,48.235294%,48.235294%);fill-opacity:1;" d="M 64 552 L 210.628906 552 C 228.496094 687.816406 336.183594 795.503906 472 813.371094 L 472 960 L 64 960 Z M 960 960 L 552 960 L 552 813.371094 C 674.175781 797.296875 773.59375 708.539062 805.320312 592 L 960 592 Z M 432 64 L 432 218.679688 C 315.464844 250.410156 226.707031 349.816406 210.628906 472 L 64 472 L 64 64 Z M 432 64 "/>
<path style=" stroke:none;fill-rule:evenodd;fill:rgb(96.862745%,52.549022%,95.294118%);fill-opacity:1;" d="M 64 552 L 210.628906 552 C 228.496094 687.816406 336.183594 795.503906 472 813.371094 L 472 960 L 64 960 Z M 64 552 "/>
<path style=" stroke:none;fill-rule:evenodd;fill:rgb(83.137256%,36.078432%,57.254905%);fill-opacity:1;" d="M 960 960 L 552 960 L 552 813.371094 C 674.175781 797.296875 773.59375 708.539062 805.320312 592 L 960 592 Z M 960 960 "/>
<path style=" stroke:none;fill-rule:evenodd;fill:rgb(67.058825%,46.27451%,89.411765%);fill-opacity:1;" d="M 432 64 L 432 218.679688 C 315.464844 250.410156 226.707031 349.816406 210.628906 472 L 64 472 L 64 64 Z M 432 64 "/>
<path style=" stroke:none;fill-rule:evenodd;fill:rgb(83.92157%,30.980393%,36.470589%);fill-opacity:1;" d="M 743.457031 528 L 960 528 L 960 440 L 656 440 L 656 512 C 656 591.476562 591.476562 656 512 656 C 432.523438 656 368 591.476562 368 512 C 368 432.523438 432.523438 368 512 368 L 584 368 L 584 64 L 496 64 L 496 280.542969 C 375.40625 288.773438 280 389.335938 280 512 C 280 640.042969 383.957031 744 512 744 C 634.664062 744 735.226562 648.59375 743.457031 528 Z M 743.457031 528 "/>
</g>
</svg>
