<?xml version="1.0" encoding="UTF-8" standalone="no"?>
<svg
   height="128px"
   viewBox="0 0 128 128"
   width="128px"
   version="1.1"
   id="svg14"
   sodipodi:docname="org.gnome.Console.svg"
   inkscape:version="1.3.2 (091e20ef0f, 2023-11-25)"
   xmlns:inkscape="http://www.inkscape.org/namespaces/inkscape"
   xmlns:sodipodi="http://sodipodi.sourceforge.net/DTD/sodipodi-0.dtd"
   xmlns="http://www.w3.org/2000/svg"
   xmlns:svg="http://www.w3.org/2000/svg">
  <defs
     id="defs14" />
  <sodipodi:namedview
     id="namedview14"
     pagecolor="#ffffff"
     bordercolor="#000000"
     borderopacity="0.25"
     inkscape:showpageshadow="2"
     inkscape:pageopacity="0.0"
     inkscape:pagecheckerboard="0"
     inkscape:deskcolor="#d1d1d1"
     inkscape:zoom="2.9975414"
     inkscape:cx="31.359033"
     inkscape:cy="47.53896"
     inkscape:window-width="1503"
     inkscape:window-height="933"
     inkscape:window-x="0"
     inkscape:window-y="0"
     inkscape:window-maximized="1"
     inkscape:current-layer="svg14" />
  <linearGradient
     id="a"
     gradientUnits="userSpaceOnUse"
     x1="11.999989"
     x2="115.999989"
     y1="64"
     y2="64">
    <stop
       offset="0"
       stop-color="#3d3846"
       id="stop1" />
    <stop
       offset="0.05"
       stop-color="#77767b"
       id="stop2" />
    <stop
       offset="0.1"
       stop-color="#5e5c64"
       id="stop3" />
    <stop
       offset="0.899999"
       stop-color="#504e56"
       id="stop4" />
    <stop
       offset="0.95"
       stop-color="#77767b"
       id="stop5" />
    <stop
       offset="1"
       stop-color="#3d3846"
       id="stop6" />
  </linearGradient>
  <linearGradient
     id="b"
     gradientUnits="userSpaceOnUse"
     x1="12"
     x2="112.041023"
     y1="60"
     y2="80.988281">
    <stop
       offset="0"
       stop-color="#77767b"
       id="stop7" />
    <stop
       offset="0.384443"
       stop-color="#9a9996"
       id="stop8" />
    <stop
       offset="0.720567"
       stop-color="#77767b"
       id="stop9" />
    <stop
       offset="1"
       stop-color="#68666f"
       id="stop10" />
  </linearGradient>
  <path
     d="m 20 22 h 88 c 4.417969 0 8 3.582031 8 8 v 78 c 0 4.417969 -3.582031 8 -8 8 h -88 c -4.417969 0 -8 -3.582031 -8 -8 v -78 c 0 -4.417969 3.582031 -8 8 -8 z m 0 0"
     fill="url(#a)"
     id="path10" />
  <path
     d="m 20 12 h 88 c 4.417969 0 8 3.582031 8 8 v 80 c 0 4.417969 -3.582031 8 -8 8 h -88 c -4.417969 0 -8 -3.582031 -8 -8 v -80 c 0 -4.417969 3.582031 -8 8 -8 z m 0 0"
     fill="url(#b)"
     id="path11" />
  <path
     d="m 20 14 h 88 c 3.3125 0 6 2.6875 6 6 v 80 c 0 3.3125 -2.6875 6 -6 6 h -88 c -3.3125 0 -6 -2.6875 -6 -6 v -80 c 0 -3.3125 2.6875 -6 6 -6 z m 0 0"
     fill="#241f31"
     id="path12" />
  <g
     fill="#62c9ea"
     id="g14">
    <path
       d="m 46.011719 40.886719 l -14.011719 -7.613281 v 4.726562 l 9.710938 4.628906 v 0.144532 l -9.710938 5.226562 v 4.726562 l 14.011719 -8.210937 z m 0 0"
       id="path13" />
    <path
       d="M 70.156204,40.886281 84.167923,33.273 v 4.726562 l -9.710938,4.628906 V 42.773 l 9.710938,5.226562 v 4.726562 L 70.156204,44.515187 Z m 0,0"
       id="path13-0" />
    <path
       d="m 50 56 v 4 h 16 v -4 z m 0 0"
       id="path14" />
  </g>
</svg>
